<svg width="35" height="34" viewBox="0 0 35 34" fill="none" xmlns="http://www.w3.org/2000/svg">
<g clip-path="url(#clip0_1993_1978)">
<path d="M27.8685 17.0456C27.8685 18.2226 27.6723 19.3558 27.3134 20.4117L25.6147 18.713C25.7258 18.1642 25.7818 17.6056 25.7816 17.0456V14.9587C25.7816 14.682 25.8916 14.4166 26.0872 14.2209C26.2829 14.0252 26.5483 13.9153 26.8251 13.9153C27.1018 13.9153 27.3672 14.0252 27.5629 14.2209C27.7586 14.4166 27.8685 14.682 27.8685 14.9587V17.0456ZM17.4341 25.3931C19.1412 25.3931 20.7272 24.8818 22.0503 24.0012L23.5487 25.5016C22.059 26.5819 20.3088 27.2467 18.4776 27.4278V31.6537H24.7382C25.0149 31.6537 25.2803 31.7637 25.476 31.9594C25.6717 32.155 25.7816 32.4204 25.7816 32.6972C25.7816 32.9739 25.6717 33.2393 25.476 33.435C25.2803 33.6307 25.0149 33.7406 24.7382 33.7406H10.1301C9.85333 33.7406 9.58793 33.6307 9.39225 33.435C9.19656 33.2393 9.08663 32.9739 9.08663 32.6972C9.08663 32.4204 9.19656 32.155 9.39225 31.9594C9.58793 31.7637 9.85333 31.6537 10.1301 31.6537H16.3907V27.4278C13.8169 27.1691 11.431 25.9637 9.69575 24.0453C7.96052 22.1269 6.99972 19.6324 6.99976 17.0456V14.9587C6.99976 14.682 7.10969 14.4166 7.30537 14.2209C7.50105 14.0252 7.76646 13.9153 8.04319 13.9153C8.31993 13.9153 8.58533 14.0252 8.78101 14.2209C8.9767 14.4166 9.08663 14.682 9.08663 14.9587V17.0456C9.08663 19.2595 9.9661 21.3827 11.5316 22.9482C13.097 24.5136 15.2202 25.3931 17.4341 25.3931ZM23.6948 6.61124V16.7931L11.5032 4.60158C11.981 3.19761 12.9415 2.00875 14.2137 1.24665C15.486 0.484539 16.9874 0.198641 18.4507 0.43985C19.9139 0.681059 21.2441 1.43372 22.2045 2.56384C23.1648 3.69396 23.6929 5.12821 23.6948 6.61124Z" fill="#1E1E1E"/>
<path d="M20.5352 22.4861L11.1735 13.1223V17.0456C11.1731 18.1419 11.4607 19.219 12.0073 20.1693C12.554 21.1195 13.3405 21.9096 14.2884 22.4604C15.2362 23.0112 16.3121 23.3035 17.4083 23.308C18.5046 23.3125 19.5828 23.0291 20.5352 22.4861ZM4.17407 3.17624L29.2166 28.2187L30.6941 26.7412L5.65158 1.69873L4.17407 3.17624Z" fill="#1E1E1E"/>
</g>
<defs>
<clipPath id="clip0_1993_1978">
<rect width="33.39" height="33.39" fill="white" transform="translate(0.739014 0.350586)"/>
</clipPath>
</defs>
</svg>
