<svg width="23" height="24" viewBox="0 0 23 24" fill="none" xmlns="http://www.w3.org/2000/svg">
<path fill-rule="evenodd" clip-rule="evenodd" d="M11.5 3.75C11.6823 3.75 11.8572 3.82243 11.9861 3.95136C12.1151 4.0803 12.1875 4.25516 12.1875 4.4375V19.5625C12.1875 19.7448 12.1151 19.9197 11.9861 20.0486C11.8572 20.1776 11.6823 20.25 11.5 20.25C11.3177 20.25 11.1428 20.1776 11.0139 20.0486C10.8849 19.9197 10.8125 19.7448 10.8125 19.5625V4.4375C10.8125 4.25516 10.8849 4.0803 11.0139 3.95136C11.1428 3.82243 11.3177 3.75 11.5 3.75ZM8.75 6.5C8.93234 6.5 9.1072 6.57243 9.23614 6.70136C9.36507 6.8303 9.4375 7.00516 9.4375 7.1875V16.8125C9.4375 16.9948 9.36507 17.1697 9.23614 17.2986C9.1072 17.4276 8.93234 17.5 8.75 17.5C8.56766 17.5 8.3928 17.4276 8.26386 17.2986C8.13493 17.1697 8.0625 16.9948 8.0625 16.8125V7.1875C8.0625 7.00516 8.13493 6.8303 8.26386 6.70136C8.3928 6.57243 8.56766 6.5 8.75 6.5ZM14.25 6.5C14.4323 6.5 14.6072 6.57243 14.7361 6.70136C14.8651 6.8303 14.9375 7.00516 14.9375 7.1875V16.8125C14.9375 16.9948 14.8651 17.1697 14.7361 17.2986C14.6072 17.4276 14.4323 17.5 14.25 17.5C14.0677 17.5 13.8928 17.4276 13.7639 17.2986C13.6349 17.1697 13.5625 16.9948 13.5625 16.8125V7.1875C13.5625 7.00516 13.6349 6.8303 13.7639 6.70136C13.8928 6.57243 14.0677 6.5 14.25 6.5ZM6 8.5625C6.18234 8.5625 6.3572 8.63493 6.48614 8.76386C6.61507 8.8928 6.6875 9.06766 6.6875 9.25V14.75C6.6875 14.9323 6.61507 15.1072 6.48614 15.2361C6.3572 15.3651 6.18234 15.4375 6 15.4375C5.81766 15.4375 5.6428 15.3651 5.51386 15.2361C5.38493 15.1072 5.3125 14.9323 5.3125 14.75V9.25C5.3125 9.06766 5.38493 8.8928 5.51386 8.76386C5.6428 8.63493 5.81766 8.5625 6 8.5625ZM17 8.5625C17.1823 8.5625 17.3572 8.63493 17.4861 8.76386C17.6151 8.8928 17.6875 9.06766 17.6875 9.25V14.75C17.6875 14.9323 17.6151 15.1072 17.4861 15.2361C17.3572 15.3651 17.1823 15.4375 17 15.4375C16.8177 15.4375 16.6428 15.3651 16.5139 15.2361C16.3849 15.1072 16.3125 14.9323 16.3125 14.75V9.25C16.3125 9.06766 16.3849 8.8928 16.5139 8.76386C16.6428 8.63493 16.8177 8.5625 17 8.5625ZM3.25 9.9375C3.43234 9.9375 3.6072 10.0099 3.73614 10.1389C3.86507 10.2678 3.9375 10.4427 3.9375 10.625V13.375C3.9375 13.5573 3.86507 13.7322 3.73614 13.8611C3.6072 13.9901 3.43234 14.0625 3.25 14.0625C3.06766 14.0625 2.8928 13.9901 2.76386 13.8611C2.63493 13.7322 2.5625 13.5573 2.5625 13.375V10.625C2.5625 10.4427 2.63493 10.2678 2.76386 10.1389C2.8928 10.0099 3.06766 9.9375 3.25 9.9375ZM19.75 9.9375C19.9323 9.9375 20.1072 10.0099 20.2361 10.1389C20.3651 10.2678 20.4375 10.4427 20.4375 10.625V13.375C20.4375 13.5573 20.3651 13.7322 20.2361 13.8611C20.1072 13.9901 19.9323 14.0625 19.75 14.0625C19.5677 14.0625 19.3928 13.9901 19.2639 13.8611C19.1349 13.7322 19.0625 13.5573 19.0625 13.375V10.625C19.0625 10.4427 19.1349 10.2678 19.2639 10.1389C19.3928 10.0099 19.5677 9.9375 19.75 9.9375Z" fill="#1E1E1E"/>
</svg>
