<svg width="47" height="18" viewBox="0 0 47 18" fill="none" xmlns="http://www.w3.org/2000/svg">
<path d="M23.6165 0.877804C25.5285 0.877804 27.474 0.978087 29.4529 1.17865C31.4452 1.37922 33.3706 1.70681 35.2292 2.16142C37.1012 2.60267 38.8126 3.19768 40.3637 3.94646C41.9147 4.68187 43.2251 5.59778 44.2948 6.69421C45.097 7.50984 45.7255 8.43913 46.1801 9.48207C46.6481 10.5116 46.8821 11.6615 46.8821 12.9318C46.8821 13.5201 46.8085 14.1419 46.6614 14.7971C46.5277 15.4389 46.3004 16.0138 45.9795 16.5219C45.6586 17.03 45.2107 17.3576 44.6357 17.5047C44.3282 17.6785 43.9806 17.7654 43.5928 17.7654C43.2184 17.7521 42.7838 17.7053 42.2891 17.625L36.5329 16.6623C35.5434 16.5019 34.7746 16.201 34.2264 15.7598C33.6782 15.3185 33.277 14.6165 33.023 13.6538L32.0603 10.164C31.98 9.81634 31.8597 9.5623 31.6992 9.40184C31.5522 9.22802 31.2914 9.07425 30.917 8.94054C30.1014 8.64638 29.0718 8.42576 27.8283 8.27868C26.5982 8.13159 25.1942 8.05805 23.6165 8.05805C22.0387 8.05805 20.628 8.13159 19.3845 8.27868C18.1544 8.42576 17.1382 8.64638 16.3359 8.94054C15.9482 9.07425 15.6741 9.22802 15.5136 9.40184C15.3665 9.5623 15.2462 9.81634 15.1526 10.164L14.2099 13.6538C13.9425 14.6165 13.5414 15.3185 13.0065 15.7598C12.4717 16.201 11.7029 16.5019 10.7 16.6623L4.9438 17.625C4.44907 17.7053 4.00783 17.7521 3.62006 17.7654C3.24568 17.7654 2.89803 17.6785 2.57712 17.5047C2.01554 17.3576 1.56761 17.03 1.23333 16.5219C0.912429 16.0138 0.685122 15.4389 0.551411 14.7971C0.417701 14.1419 0.350846 13.5201 0.350846 12.9318C0.350846 11.6615 0.578153 10.5116 1.03277 9.48207C1.50076 8.43913 2.14256 7.50984 2.9582 6.69421C4.01451 5.59778 5.31819 4.68187 6.86923 3.94646C8.43364 3.19768 10.1384 2.60267 11.9837 2.16142C13.8422 1.70681 15.761 1.37922 17.7399 1.17865C19.7322 0.978087 21.691 0.877804 23.6165 0.877804Z" fill="#FCFCFC"/>
</svg>
