<svg width="226" height="168" viewBox="0 0 226 168" fill="none" xmlns="http://www.w3.org/2000/svg">
<path d="M162.624 62.8996H204.759C216.222 62.8996 225.495 72.0578 225.495 83.3797C225.495 94.7017 216.222 103.86 204.759 103.86H161.096V146.984C161.096 158.306 151.823 167.464 140.359 167.464H140.258C128.794 167.464 119.521 158.306 119.521 146.984V105.218L65.8214 161.073C61.8984 165.149 56.4469 167.464 50.7915 167.464H48.6007C30.412 167.464 21.0375 145.977 33.5199 132.894L61.3379 103.81H21.2413C9.7778 103.81 0.505127 94.6513 0.505127 83.3294C0.505127 72.0075 9.7778 62.8493 21.2413 62.8493H64.293V20.4801C64.293 9.15819 73.5656 0 85.0291 0H85.131C96.5945 0 105.867 9.15819 105.867 20.4801V59.8301L160.331 5.98804C164.203 2.16375 169.502 0 175.005 0H175.922C194.365 0 203.638 21.9394 190.697 34.8715L162.675 62.8493L162.624 62.8996Z" fill="#1E1E1E"/>
<ellipse cx="103.5" cy="84.7319" rx="6.5" ry="12" fill="#FCFCFC"/>
<ellipse cx="103.5" cy="95.2319" rx="6.5" ry="11.5" fill="#1E1E1E"/>
<ellipse cx="123" cy="84.7319" rx="7" ry="12" fill="#FCFCFC"/>
<ellipse cx="123" cy="95.2319" rx="7" ry="11.5" fill="#1E1E1E"/>
</svg>
