<svg width="35" height="30" viewBox="0 0 35 30" fill="none" xmlns="http://www.w3.org/2000/svg">
<path d="M19.9519 2.69965C19.9519 0.622345 17.3821 -0.417865 15.881 1.05149L8.72516 8.04842H5.65292C3.83852 8.04842 1.96687 9.08085 1.42303 11.0104C1.05407 12.325 0.867929 13.6822 0.869641 15.0453C0.869641 16.4416 1.06205 17.7944 1.42621 19.0802C1.96846 21.0083 3.84011 22.0423 5.65451 22.0423H8.72357L15.8794 29.0392C17.3821 30.5086 19.9519 29.4683 19.9519 27.391V2.69965ZM28.0364 4.32605C28.26 4.10767 28.5631 3.98501 28.8792 3.98501C29.1952 3.98501 29.4984 4.10767 29.722 4.32605C35.7774 10.2455 35.7774 19.8437 29.722 25.7646C29.6128 25.8792 29.4811 25.9711 29.3348 26.0348C29.1885 26.0986 29.0306 26.1329 28.8705 26.1356C28.7104 26.1384 28.5513 26.1096 28.4028 26.0509C28.2543 25.9923 28.1194 25.905 28.0061 25.7942C27.8929 25.6835 27.8036 25.5516 27.7436 25.4064C27.6836 25.2612 27.6542 25.1057 27.657 24.9491C27.6598 24.7925 27.6949 24.6381 27.7601 24.495C27.8252 24.352 27.9192 24.2232 28.0364 24.1165C29.2548 22.9253 30.2213 21.5111 30.8807 19.9547C31.5401 18.3982 31.8795 16.73 31.8795 15.0453C31.8795 13.3607 31.5401 11.6925 30.8807 10.136C30.2213 8.57959 29.2548 7.1654 28.0364 5.97422C27.8131 5.75556 27.6876 5.45917 27.6876 5.15013C27.6876 4.8411 27.8131 4.54471 28.0364 4.32605Z" fill="#1E1E1E"/>
<path d="M23.8189 8.44802C23.9296 8.33966 24.0611 8.25369 24.2059 8.19504C24.3506 8.13639 24.5058 8.1062 24.6625 8.1062C24.8192 8.1062 24.9743 8.13639 25.1191 8.19504C25.2638 8.25369 25.3953 8.33966 25.5061 8.44802C26.3922 9.31434 27.0952 10.3429 27.5747 11.4748C28.0543 12.6068 28.3012 13.8201 28.3012 15.0453C28.3012 16.2706 28.0543 17.4839 27.5747 18.6159C27.0952 19.7478 26.3922 20.7764 25.5061 21.6427C25.281 21.855 24.9797 21.9724 24.667 21.9696C24.3543 21.9668 24.0552 21.844 23.8342 21.6277C23.6132 21.4114 23.4879 21.1188 23.4853 20.8131C23.4828 20.5073 23.6031 20.2128 23.8205 19.993C24.485 19.3432 25.0121 18.5719 25.3717 17.723C25.7313 16.8741 25.9164 15.9642 25.9164 15.0453C25.9164 14.1265 25.7313 13.2166 25.3717 12.3677C25.0121 11.5188 24.485 10.7475 23.8205 10.0977C23.5971 9.87909 23.4717 9.58269 23.4717 9.27366C23.4717 8.96463 23.5971 8.66823 23.8205 8.44958L23.8189 8.44802Z" fill="#1E1E1E"/>
</svg>
